<?xml version="1.0" encoding="UTF-8"?>
<svg width="7px" height="12px" viewBox="0 0 7 12" version="1.1" xmlns="http://www.w3.org/2000/svg" xmlns:xlink="http://www.w3.org/1999/xlink">
    <!-- Generator: Sketch 42 (36781) - http://www.bohemiancoding.com/sketch -->
    <title>FB</title>
    <desc>Created with Sketch.</desc>
    <defs></defs>
    <g id="Symbols" stroke="none" stroke-width="1" fill="none" fill-rule="evenodd">
        <g id="Icons" transform="translate(-37.000000, 0.000000)" fill-rule="nonzero" fill="#424242">
            <g id="FB">
                <g transform="translate(37.357143, 0.000000)">
                    <path d="M3.83837966,12 L1.36341851,12 L1.36341851,6.61966828 L0,6.61966828 L0,4.14872205 L1.36337869,4.14872205 L1.36337869,2.76120349 C1.36337869,1.48738667 2.1272084,0 4.2808148,0 C5.04002585,0 5.5973699,0.0742363974 5.62066225,0.0774351678 L5.84916614,0.108425852 L5.79414046,2.42080447 L5.54234422,2.41839501 C5.54182662,2.41839501 4.97604158,2.41278677 4.35885411,2.41278677 C3.899537,2.41278677 3.83861856,2.53105819 3.83861856,3.00148514 L3.83861856,4.1492621 L5.86576941,4.1492621 L5.75344854,6.62020834 L3.83885745,6.62020834 L3.83885745,12 L3.83837966,12 Z M1.87489455,11.4660131 L3.32630638,11.4660131 L3.32630638,6.08597215 L5.2644287,6.08597215 L5.32841298,4.68270898 L3.32630638,4.68270898 L3.32630638,3.00094509 C3.32630638,2.44560533 3.44885995,1.87825979 4.35829669,1.87825979 C4.72372773,1.87825979 5.07096287,1.8801292 5.2943305,1.88199861 L5.32530733,0.582051575 C5.09935166,0.560947999 4.72344902,0.533986935 4.28025738,0.533986935 C2.50669448,0.533986935 1.87461584,1.68442261 1.87461584,2.76120349 L1.87461584,4.68270898 L0.511276964,4.68270898 L0.511276964,6.08597215 L1.87465566,6.08597215 L1.87465566,11.4660131 L1.87489455,11.4660131 Z" id="Shape"></path>
                </g>
            </g>
        </g>
    </g>
</svg>