<?xml version="1.0" encoding="UTF-8"?>
<svg width="166px" height="22px" viewBox="0 0 166 22" version="1.1" xmlns="http://www.w3.org/2000/svg" xmlns:xlink="http://www.w3.org/1999/xlink">
    <!-- Generator: Sketch 42 (36781) - http://www.bohemiancoding.com/sketch -->
    <title>Logo</title>
    <desc>Created with Sketch.</desc>
    <defs></defs>
    <g id="Main" stroke="none" stroke-width="1" fill="none" fill-rule="evenodd">
        <g id="Desktop-HD" transform="translate(-240.000000, -30.000000)" fill="#424242">
            <g id="Header" transform="translate(240.000000, 25.000000)">
                <g id="Logo" transform="translate(0.000000, 5.000000)">
                    <g transform="translate(0.000000, 0.620001)">
                        <path d="M6.944,0.112 L6.864,0.016 L0.08,0.016 L0,0.656 L0.064,0.752 L1.808,0.704 L3.056,0.704 L3.104,7.136 L3.056,10.24 L3.888,10.24 L3.856,7.088 L3.904,0.704 L5.152,0.704 L6.864,0.752 L6.944,0.112 Z M17.088,10.24 L16.224,10.24 L16,9.376 L15.232,7.168 L12.8,7.136 L10.608,7.168 L9.776,9.344 L9.536,10.24 L8.672,10.24 L12.576,0.016 L13.52,0.016 L17.088,10.24 Z M14.976,6.432 L13.072,0.976 L12.976,0.976 L10.896,6.432 L12.896,6.448 L14.976,6.432 Z M25.92,0.112 L25.84,0.016 L19.056,0.016 L18.976,0.656 L19.04,0.752 L20.784,0.704 L22.032,0.704 L22.08,7.136 L22.032,10.24 L22.864,10.24 L22.832,7.088 L22.88,0.704 L24.128,0.704 L25.84,0.752 L25.92,0.112 Z M30.72,7.088 L30.768,0.016 L29.92,0.016 L29.968,7.136 L29.92,10.24 L30.752,10.24 L30.72,7.088 Z M42.992,10.24 L42.128,10.24 L41.904,9.376 L41.136,7.168 L38.704,7.136 L36.512,7.168 L35.68,9.344 L35.44,10.24 L34.576,10.24 L38.48,0.016 L39.424,0.016 L42.992,10.24 Z M40.88,6.432 L38.976,0.976 L38.88,0.976 L36.8,6.432 L38.8,6.448 L40.88,6.432 Z M54.56,7.328 L54.608,0 L53.824,0.064 L53.808,8.848 L53.728,8.848 L47.888,0.016 L47.024,0.016 L47.056,7.2 L47.008,10.24 L47.792,10.24 L47.76,6.96 L47.776,1.408 L47.872,1.408 L53.712,10.24 L54.56,10.24 L54.56,7.328 Z M66.896,10.24 L66.032,10.24 L65.808,9.376 L65.04,7.168 L62.608,7.136 L60.416,7.168 L59.584,9.344 L59.344,10.24 L58.48,10.24 L62.384,0.016 L63.328,0.016 L66.896,10.24 Z M64.784,6.432 L62.88,0.976 L62.784,0.976 L60.704,6.432 L62.704,6.448 L64.784,6.432 Z" id="TATIANA"></path>
                        <path d="M74.016,0.096 L77.712,0.032 C80.624,0.032 82.24,1.744 82.24,4.864 C82.24,8.464 80.496,10.448 77.344,10.448 C76.736,10.448 74.896,10.4 74.016,10.352 L74,10.352 L74.08,7.264 L74,0.096 L74.016,0.096 Z M77.552,9.376 C79.696,9.376 80.928,8 80.928,5.136 C80.928,2.416 79.792,1.104 77.616,1.104 C77.28,1.104 75.952,1.136 75.296,1.168 L75.232,7.152 L75.28,9.28 C76.032,9.344 77.216,9.376 77.552,9.376 Z M92.192,9.36 L92.112,9.232 L89.648,9.296 L87.616,9.28 L87.568,7.152 L87.584,5.632 L89.408,5.616 L91.2,5.648 L91.312,4.656 L91.216,4.544 L89.52,4.592 L87.6,4.56 L87.632,1.2 L89.664,1.168 L92.08,1.216 L92.176,0.224 L92.112,0.096 L86.336,0.096 L86.416,7.264 L86.336,10.352 L92.096,10.352 L92.192,9.36 Z M103.92,7.344 L104.016,0.064 L102.8,0.16 L102.816,8.304 L102.704,8.304 L97.424,0.096 L96.08,0.096 L96.128,7.312 L96.048,10.352 L97.248,10.352 L97.2,6.976 L97.216,2.144 L97.312,2.144 L102.608,10.352 L103.952,10.352 L103.92,7.344 Z M110.208,7.152 L110.288,0.096 L108.976,0.096 L109.056,7.264 L108.976,10.352 L110.272,10.352 L110.208,7.152 Z M118.048,0.016 C116.064,0.016 114.704,1.28 114.704,2.864 C114.704,5.84 119.376,5.536 119.376,7.696 C119.376,8.576 118.608,9.424 117.328,9.424 C116.56,9.424 115.568,9.12 114.784,8.352 L114.608,8.432 L114.448,9.744 C115.296,10.224 116.32,10.464 117.2,10.464 C119.264,10.464 120.64,9.12 120.64,7.52 C120.64,4.56 115.952,4.768 115.952,2.72 C115.952,1.92 116.64,1.056 117.888,1.056 C118.56,1.056 119.28,1.312 119.904,1.792 L120.128,1.728 L120.336,0.496 C119.472,0.144 118.656,0.016 118.048,0.016 Z M130.672,9.36 L130.592,9.232 L128.128,9.296 L126.096,9.28 L126.048,7.152 L126.064,5.632 L127.888,5.616 L129.68,5.648 L129.792,4.656 L129.696,4.544 L128,4.592 L126.08,4.56 L126.112,1.2 L128.144,1.168 L130.56,1.216 L130.656,0.224 L130.592,0.096 L124.816,0.096 L124.896,7.264 L124.816,10.352 L130.576,10.352 L130.672,9.36 Z M142.4,7.344 L142.496,0.064 L141.28,0.16 L141.296,8.304 L141.184,8.304 L135.904,0.096 L134.56,0.096 L134.608,7.312 L134.528,10.352 L135.728,10.352 L135.68,6.976 L135.696,2.144 L135.792,2.144 L141.088,10.352 L142.432,10.352 L142.4,7.344 Z M148.672,7.152 L148.752,0.096 L147.44,0.096 L147.52,7.264 L147.44,10.352 L148.736,10.352 L148.672,7.152 Z M154.416,0.096 L152.96,0.096 L152.336,0.992 L148.912,4.896 L148.912,4.992 C150.288,6.864 151.792,8.672 153.328,10.416 L153.472,10.496 C153.888,10.432 154.304,10.352 154.688,10.24 L154.704,10.08 C153.152,8.464 151.632,6.672 150.272,4.912 L154.416,0.096 Z M161.568,0 C164.368,0 165.92,1.792 165.92,5.024 C165.92,8.512 164.256,10.48 161.312,10.48 C158.528,10.48 156.96,8.608 156.96,5.312 C156.96,1.888 158.608,0 161.568,0 Z M161.456,1.056 C159.328,1.056 158.272,2.4 158.272,5.152 C158.272,8.032 159.312,9.408 161.392,9.408 C163.504,9.408 164.592,8.048 164.592,5.248 C164.592,2.4 163.552,1.056 161.456,1.056 Z" id="DENISENKO"></path>
                        <path d="M0.871998093,15.2679992 L2.23199809,15.2599992 C3.19999809,15.2599992 3.74399809,15.7799992 3.74399809,16.7239992 C3.74399809,17.8359992 3.07999809,18.4919992 1.92799809,18.4919992 L1.27199809,18.4919992 L1.27199809,18.8039992 L1.28799809,20.3799992 L0.871998093,20.3799992 L0.895998093,18.8279992 L0.871998093,15.2679992 Z M1.27999809,18.1239992 L2.16799809,18.1399992 C2.91199809,18.0439992 3.31999809,17.5479992 3.31999809,16.7559992 C3.31999809,16.0199992 2.91999809,15.6359992 2.18399809,15.6119992 L1.29599809,15.6279992 L1.27999809,18.1239992 Z M20.2799985,18.8039992 L20.2959985,15.2679992 L19.8719985,15.2679992 L19.8879985,17.6039992 L18.3759985,17.6119992 L16.9039985,17.6039992 L16.9199985,15.2679992 L16.4959985,15.2679992 L16.5199985,18.8279992 L16.4959985,20.3799992 L16.9119985,20.3799992 L16.8959985,18.8039992 L16.9039985,17.9719992 L18.3359985,17.9639992 L19.8879985,17.9719992 L19.8959985,18.8279992 L19.8719985,20.3799992 L20.2879985,20.3799992 L20.2799985,18.8039992 Z M35.2799989,15.2199992 C36.6559989,15.2199992 37.4159989,16.1239992 37.4159989,17.7319992 C37.4159989,19.4679992 36.6079989,20.4279992 35.1759989,20.4279992 C33.8079989,20.4279992 33.0479989,19.4999992 33.0479989,17.8519992 C33.0479989,16.1639992 33.8479989,15.2199992 35.2799989,15.2199992 Z M35.2479989,15.5799992 C34.0799989,15.5799992 33.4639989,16.3479992 33.4639989,17.8119992 C33.4639989,19.2999992 34.0639989,20.0759992 35.1999989,20.0759992 C36.3599989,20.0759992 36.9919989,19.2919992 36.9919989,17.7879992 C36.9919989,16.3319992 36.3919989,15.5799992 35.2479989,15.5799992 Z M52.6639992,15.3159992 L52.6239992,15.2679992 L49.2319992,15.2679992 L49.1919992,15.5879992 L49.2239992,15.6359992 L50.0959992,15.6119992 L50.7199992,15.6119992 L50.7439992,18.8279992 L50.7199992,20.3799992 L51.1359992,20.3799992 L51.1199992,18.8039992 L51.1439992,15.6119992 L51.7679992,15.6119992 L52.6239992,15.6359992 L52.6639992,15.3159992 Z M66.6719996,15.2199992 C68.0479996,15.2199992 68.8079996,16.1239992 68.8079996,17.7319992 C68.8079996,19.4679992 67.9999996,20.4279992 66.5679996,20.4279992 C65.1999996,20.4279992 64.4399996,19.4999992 64.4399996,17.8519992 C64.4399996,16.1639992 65.2399996,15.2199992 66.6719996,15.2199992 Z M66.6399996,15.5799992 C65.4719996,15.5799992 64.8559996,16.3479992 64.8559996,17.8119992 C64.8559996,19.2999992 65.4559996,20.0759992 66.5919996,20.0759992 C67.7519996,20.0759992 68.3839996,19.2919992 68.3839996,17.7879992 C68.3839996,16.3319992 67.7839996,15.5799992 66.6399996,15.5799992 Z M83.52,15.2279992 C81.968,15.2279992 81.088,16.1719992 81.088,17.8999992 C81.088,19.5079992 81.824,20.4279992 83.28,20.4279992 C83.816,20.4199992 84.256,20.3399992 84.96,20.1399992 L84.944,19.0599992 L84.952,18.3959992 L84.552,18.4279992 L84.56,19.1079992 L84.552,19.8519992 C83.984,20.0119992 83.688,20.0599992 83.288,20.0599992 C82.12,20.0599992 81.512,19.3399992 81.512,17.8839992 C81.512,16.3639992 82.2,15.5879992 83.472,15.5879992 C83.92,15.5879992 84.352,15.7319992 84.832,16.0199992 L84.896,16.0119992 L84.992,15.6279992 C84.504,15.3559992 84.008,15.2279992 83.52,15.2279992 Z M99.7280004,18.2839992 C100.152,18.9639992 100.616,19.6279992 101.112,20.2839992 L101.112,20.3399992 C100.992,20.3959992 100.88,20.4199992 100.752,20.4439992 L100.688,20.4119992 C100.224,19.7479992 99.7760004,19.0679992 99.3760004,18.3799992 L98.3680004,18.3799992 L98.3680004,18.8039992 L98.3840004,20.3799992 L97.9680004,20.3799992 L97.9920004,18.8279992 L97.9680004,15.2679992 L99.3280004,15.2599992 C100.296,15.2599992 100.84,15.7639992 100.84,16.6919992 C100.84,17.4359992 100.44,18.0039992 99.7280004,18.2839992 Z M98.3760004,18.0119992 L99.4160004,18.0279992 C100.064,17.8519992 100.416,17.4039992 100.416,16.7159992 C100.416,16.0039992 100.016,15.6359992 99.2800004,15.6119992 L98.3920004,15.6279992 L98.3760004,18.0119992 Z M117.400001,20.3799992 L116.968001,20.3799992 L116.856001,19.9479992 L116.472001,18.8439992 L115.256001,18.8279992 L114.160001,18.8439992 L113.744001,19.9319992 L113.624001,20.3799992 L113.192001,20.3799992 L115.144001,15.2679992 L115.616001,15.2679992 L117.400001,20.3799992 Z M116.344001,18.4759992 L115.392001,15.7479992 L115.344001,15.7479992 L114.304001,18.4759992 L115.304001,18.4839992 L116.344001,18.4759992 Z M130.008001,15.2679992 L131.368001,15.2599992 C132.336001,15.2599992 132.880001,15.7799992 132.880001,16.7239992 C132.880001,17.8359992 132.216001,18.4919992 131.064001,18.4919992 L130.408001,18.4919992 L130.408001,18.8039992 L130.424001,20.3799992 L130.008001,20.3799992 L130.032001,18.8279992 L130.008001,15.2679992 Z M130.416001,18.1239992 L131.304001,18.1399992 C132.048001,18.0439992 132.456001,17.5479992 132.456001,16.7559992 C132.456001,16.0199992 132.056001,15.6359992 131.320001,15.6119992 L130.432001,15.6279992 L130.416001,18.1239992 Z M149.416002,18.8039992 L149.432002,15.2679992 L149.008002,15.2679992 L149.024002,17.6039992 L147.512002,17.6119992 L146.040002,17.6039992 L146.056002,15.2679992 L145.632002,15.2679992 L145.656002,18.8279992 L145.632002,20.3799992 L146.048002,20.3799992 L146.032002,18.8039992 L146.040002,17.9719992 L147.472002,17.9639992 L149.024002,17.9719992 L149.032002,18.8279992 L149.008002,20.3799992 L149.424002,20.3799992 L149.416002,18.8039992 Z M164.008002,18.8519992 L164.016002,18.4999992 L165.776002,15.2679992 L165.320002,15.2679992 L165.216002,15.5239992 L163.856002,17.9959992 L163.808002,17.9959992 L162.560002,15.5159992 L162.464002,15.2679992 L162.000002,15.2679992 L163.624002,18.4919992 L163.632002,18.8519992 L163.608002,20.3799992 L164.024002,20.3799992 L164.008002,18.8519992 Z" id="PHOTOGRAPHY"></path>
                    </g>
                </g>
            </g>
        </g>
    </g>
</svg>