<?xml version="1.0" encoding="UTF-8"?>
<svg width="12px" height="7px" viewBox="0 0 12 7" version="1.1" xmlns="http://www.w3.org/2000/svg" xmlns:xlink="http://www.w3.org/1999/xlink">
    <!-- Generator: Sketch 42 (36781) - http://www.bohemiancoding.com/sketch -->
    <title>VK</title>
    <desc>Created with Sketch.</desc>
    <defs></defs>
    <g id="Symbols" stroke="none" stroke-width="1" fill="none" fill-rule="evenodd">
        <g id="Icons" transform="translate(-69.000000, -3.000000)" fill-rule="nonzero" fill="#424242">
            <g id="VK">
                <g transform="translate(69.000000, 3.000000)">
                    <path d="M11.4668162,5.30087577 C11.2057929,4.99343863 10.9109025,4.71894036 10.6256917,4.45347148 C10.525473,4.36016004 10.4217856,4.26366988 10.3219419,4.16787074 C10.3219184,4.16784771 10.321895,4.16782467 10.3218715,4.16780164 C10.1875747,4.03906363 10.1218326,3.94768706 10.1149654,3.88019692 C10.1082154,3.8138585 10.1543404,3.71543347 10.2604419,3.56994961 C10.4190902,3.35112495 10.5881917,3.13193173 10.7517854,2.91997125 C10.8971915,2.73155169 11.0475196,2.5367056 11.1916133,2.34075387 L11.223957,2.2967586 C11.5050897,1.91434521 11.7957614,1.51891752 11.9515269,1.03704257 C11.9960113,0.898883586 12.0422065,0.694432244 11.9307847,0.514949948 C11.819316,0.335421584 11.6126677,0.282212639 11.4670272,0.257842481 C11.3958944,0.24586471 11.3283944,0.24487424 11.265582,0.24487424 L9.44200483,0.243284882 C9.12672376,0.238125227 8.90800513,0.38499113 8.78880206,0.679920713 C8.69341149,0.915468192 8.58074749,1.18844621 8.45022412,1.44739641 C8.2004977,1.94730712 7.88317756,2.5230924 7.42324031,3.00282518 L7.40280282,3.02420089 C7.37149033,3.05704763 7.3203263,3.11076332 7.29405288,3.12308661 C7.24422478,3.09231295 7.18673262,2.91630881 7.18935762,2.82410301 C7.18942793,2.82182263 7.18945137,2.81956528 7.18945137,2.81730793 L7.18783418,0.746466447 C7.18783418,0.735939828 7.18708418,0.72541321 7.1856545,0.714978729 C7.14475608,0.419542393 7.06502175,0.123368965 6.58924076,0.0310940574 C6.57398296,0.0281226488 6.55846734,0.0266484615 6.54295172,0.0266484615 L4.64603869,0.0266484615 C4.28915607,0.0266484615 4.10039055,0.187265767 3.94905469,0.361404134 C3.90525003,0.412171457 3.78885947,0.546967452 3.84815631,0.711753944 C3.90815628,0.878498341 4.08693743,0.911782724 4.1456249,0.922700923 C4.35234354,0.961260133 4.45924192,1.0760855 4.49233565,1.29560119 C4.55774968,1.72212502 4.5657653,2.178409 4.51760126,2.73083763 C4.50417158,2.87915469 4.47918722,2.99188394 4.43887474,3.08563304 C4.4277185,3.11159255 4.41792163,3.12767041 4.41107788,3.13713746 C4.40015601,3.13280703 4.38316383,3.12451473 4.3596326,3.10869025 C4.21436705,3.01100231 4.10489055,2.85913799 3.99902342,2.71231816 C3.57616427,2.1255686 3.22047696,1.47752511 2.91150057,0.73087231 C2.78425845,0.424909356 2.54505546,0.254018808 2.23839937,0.249596246 C1.65414969,0.240037064 1.11379842,0.240267405 0.587017458,0.25033334 C0.338556656,0.254571628 0.164322375,0.331436672 0.0690724271,0.478832361 C-0.0262947086,0.62650446 -0.022802523,0.814785811 0.0794786714,1.03853979 C0.810634524,2.63642055 1.47452479,3.79881718 2.23202438,4.80757586 C2.76539127,5.51776556 3.30229723,6.01074299 3.92167971,6.35901972 C4.57244498,6.7249176 5.30636646,6.90423866 6.15780349,6.90421562 C6.25462375,6.90421562 6.35313151,6.90188917 6.45295177,6.89721323 C6.97825617,6.87369534 7.19198262,6.66834567 7.21530292,6.16553265 C7.22838104,5.89978736 7.25847477,5.68450996 7.36288878,5.49747246 C7.39209189,5.44511577 7.42504499,5.41001169 7.45101373,5.40358516 C7.47862309,5.39681311 7.527584,5.41342075 7.58202928,5.44817932 C7.68156829,5.51170758 7.76727918,5.59785539 7.83775571,5.67347659 C7.90919317,5.75034163 7.98138063,5.82974044 8.05124778,5.90651334 C8.19991176,6.06998689 8.35363824,6.2390347 8.51470065,6.40027393 C8.87898952,6.76522741 9.29894241,6.93259373 9.7634031,6.89753571 L11.4322694,6.89829584 L11.4323631,6.89829584 C11.43766,6.89829584 11.4429569,6.8981346 11.4482537,6.89778909 C11.6407458,6.88518939 11.8071754,6.780453 11.9049097,6.61036865 C12.0225894,6.40554876 12.0208081,6.14611484 11.9000582,5.9161186 C11.7740583,5.67700082 11.6105818,5.47119046 11.4668162,5.30087577 Z M11.4886365,6.3793589 C11.4656209,6.41941533 11.4372381,6.42671716 11.4225897,6.42846776 L9.75407498,6.42770763 L9.75391092,6.42770763 C9.74732498,6.42770763 9.74073905,6.42796101 9.73419999,6.42851383 C9.40548923,6.45541775 9.12609094,6.34185926 8.85590359,6.0712077 C8.70264586,5.91775402 8.55269282,5.75289843 8.40768508,5.59345586 C8.33702106,5.51576159 8.26396641,5.43539535 8.1905602,5.3564342 C8.099529,5.25872323 7.98700563,5.14643162 7.84241977,5.05415671 C7.62595113,4.91606683 7.44656061,4.92023602 7.33422473,4.9480613 C7.22306073,4.97558714 7.06504519,5.05413368 6.94375619,5.27166843 C6.78663128,5.55312302 6.75196723,5.85675952 6.73785787,6.14360411 C6.72970162,6.31903239 6.69951414,6.36537715 6.68690477,6.37714762 C6.67038134,6.39258052 6.61516262,6.41971477 6.43092053,6.42798404 C5.54554601,6.46889274 4.80253079,6.31306654 4.15910146,5.95126875 C3.59936738,5.63652977 3.10924265,5.18443801 2.61670386,4.528632 C1.88018082,3.54785984 1.2321343,2.41209071 0.515533122,0.845997119 C0.489564386,0.789263945 0.481548765,0.753860417 0.479228454,0.73490329 C0.497509694,0.729006541 0.533228425,0.721244024 0.595853391,0.72011535 C1.11729061,0.71018762 1.65199344,0.70991121 2.23096969,0.71940129 C2.31023527,0.720552999 2.40049304,0.743932687 2.46883675,0.90828153 C2.7916647,1.68842602 3.16457856,2.36735834 3.60895332,2.98393715 C3.72693763,3.14759497 3.87379692,3.35130922 4.08963274,3.49644756 C4.28732795,3.62949296 4.44775755,3.62313552 4.54755437,3.59438887 C4.64739806,3.56561919 4.78596049,3.4856906 4.87928856,3.26852439 C4.93949947,3.12854571 4.97589789,2.97092284 4.99392131,2.77176936 C5.04541347,2.18087366 5.03627285,1.68960076 4.96521039,1.22622225 C4.91512448,0.894230683 4.7407027,0.654398847 4.46594504,0.531926136 C4.51474189,0.506957089 4.56972623,0.496545642 4.64608557,0.496545642 L6.51820174,0.496545642 C6.6235298,0.519764091 6.64438917,0.547036555 6.6515376,0.556365396 C6.68186571,0.596007212 6.69920945,0.689779341 6.70980319,0.763051053 L6.71139694,2.8147972 C6.7071782,3.01148603 6.80444377,3.44770724 7.13561546,3.56732372 C7.13833421,3.56831419 7.1410764,3.56923555 7.14381858,3.57011085 C7.44531842,3.66694653 7.644748,3.45777318 7.75181044,3.34538944 L7.77088856,3.32544184 C8.27470078,2.79991713 8.61395841,2.18587207 8.87901295,1.65527984 C9.0171535,1.38128832 9.13415344,1.09787583 9.23308307,0.853575363 C9.28258305,0.731056583 9.3276299,0.710878645 9.43511421,0.71311296 C9.43659078,0.713159029 9.4380439,0.713159029 9.4395439,0.713159029 L11.2654413,0.714748387 C11.3079101,0.714748387 11.3522304,0.715232105 11.3866132,0.721013683 C11.4736131,0.735571282 11.509449,0.753307597 11.5212615,0.760655499 C11.5224803,0.774268696 11.522199,0.813426795 11.4959022,0.89515205 C11.3634569,1.304907 11.1074961,1.65304553 10.8365353,2.0216384 L10.8041682,2.06570278 C10.6633792,2.25716285 10.5147152,2.44979766 10.3709731,2.6361211 C10.20527,2.85082265 10.0339889,3.072803 9.87159054,3.29683339 C9.5243876,3.77292677 9.55490321,4.08886352 9.98819204,4.50421577 C10.0905904,4.60245653 10.1955435,4.7001675 10.2970747,4.79465369 C10.5849105,5.06261026 10.8568088,5.31568674 11.0994571,5.60144872 C11.2264882,5.75195403 11.3704882,5.9327032 11.4754412,6.13190275 C11.5301912,6.23617846 11.5167615,6.33038824 11.4886365,6.3793589 Z" id="Shape"></path>
                </g>
            </g>
        </g>
    </g>
</svg>